<svg width="13" height="14" viewBox="0 0 13 14" fill="none" xmlns="http://www.w3.org/2000/svg">
<path id="Icon color" fill-rule="evenodd" clip-rule="evenodd" d="M6.123 10.7071C6.00698 10.7071 5.89614 10.662 5.81675 10.5823L0.750505 5.81411C0.667681 5.73679 0.621094 5.63155 0.621094 5.52175C0.621094 5.41196 0.667681 5.30672 0.750505 5.2294L0.925505 5.0647C1.00782 4.98427 1.12187 4.93955 1.2405 4.94117H3.498V0.411764C3.498 0.184353 3.69388 0 3.9355 0H8.31049C8.55212 0 8.74799 0.184353 8.74799 0.411764V4.94117H11.0055C11.1241 4.93955 11.2382 4.98427 11.3205 5.0647L11.4955 5.2294C11.5783 5.30672 11.6249 5.41196 11.6249 5.52175C11.6249 5.63155 11.5783 5.73679 11.4955 5.81411L6.42924 10.5823C6.34985 10.662 6.23901 10.7071 6.123 10.7071ZM12.25 13.5882V12.7647C12.25 12.5373 12.0541 12.3529 11.8125 12.3529H0.437499C0.195875 12.3529 0 12.5373 0 12.7647V13.5882C0 13.8156 0.195875 14 0.437499 14H11.8125C12.0541 14 12.25 13.8156 12.25 13.5882Z" fill="#222222"/>
</svg>
