<svg width="16" height="14" viewBox="0 0 16 14" fill="none" xmlns="http://www.w3.org/2000/svg">
<path id="Icon color" fill-rule="evenodd" clip-rule="evenodd" d="M8.7592 0.875V13.125C8.7592 13.6082 8.36703 14 7.88328 14H7.36648C7.13669 13.999 6.91649 13.9079 6.75334 13.7463L3.39857 10.395C2.90624 9.90258 2.23831 9.62561 1.54162 9.625C0.690206 9.625 0 8.93552 0 8.085V5.915C0 5.06448 0.690206 4.375 1.54162 4.375C2.23831 4.37439 2.90624 4.09742 3.39857 3.605L6.75334 0.25375C6.91649 0.0920988 7.13669 0.000966549 7.36648 0H7.88328C8.36703 0 8.7592 0.391751 8.7592 0.875ZM14.0144 2.38876C13.9301 2.30357 13.8185 2.25088 13.6991 2.24001C13.5775 2.23691 13.4601 2.28445 13.375 2.37126L12.7531 2.99251C12.5973 3.16032 12.5973 3.41971 12.7531 3.58751C14.4353 5.55219 14.4353 8.44783 12.7531 10.4125C12.5973 10.5803 12.5973 10.8397 12.7531 11.0075L13.375 11.6288C13.4601 11.7156 13.5775 11.7631 13.6991 11.76C13.8189 11.7507 13.9311 11.6978 14.0144 11.6113C16.3281 8.97153 16.3281 5.0285 14.0144 2.38876ZM10.9052 4.85632C10.9963 4.76768 11.1198 4.72024 11.2468 4.72507C11.3733 4.74 11.4892 4.8026 11.5709 4.90007C12.5052 6.14451 12.5052 7.85562 11.5709 9.10007C11.4908 9.19811 11.3733 9.25835 11.2468 9.26632C11.1209 9.27453 10.9972 9.23017 10.9052 9.14382L10.2833 8.51382C10.134 8.36814 10.1084 8.13744 10.222 7.96257C10.607 7.37854 10.607 6.6216 10.222 6.03757C10.1084 5.8627 10.134 5.632 10.2833 5.48632L10.9052 4.85632Z" fill="#222222"/>
</svg>
